:SAMPLES-PER-SECOND 30
:FULLY-SPECIFIED
:DEGREES
500
root  40.9259 38.5191 3.37123 21.6491 -89.8523 -28.7652
RightUpLeg  0.475984 -8.85921 1.66238
RightLeg  20.1146 4.62444 2.40999
RightFoot  -14.2298 -0.207699 -4.43347
RightToes  -3.31784e-009 0 -3.6325e-017
Spine  7.45431 1.95145 14.6323
Spine1  5.73201 5.31214 -7.65079
HEad  -4.04823 -19.7812 -1.02478
LeftShoulder1  -0.498212 4.7578 -33.5749
LeftArm  -4.70048 27.6437 -33.5714
LeftForeArm  34.7285 -9.39869 -7.17077
LeftHand  -0.234982 12.1192 -2.80061
RightShoulder  -1.16025 -6.76244 29.0958
RightArm  20.8706 24.3365 47.3827
RightForeArm  5.96834 24.6026 4.93168
RightHand  -0.29698 5.29414 -3.54533
LeftUpLeg  -19.6354 -3.36133 3.24192
LeftLeg  44.1673 -4.08517 -3.85611
LeftFoot  -1.68294 0.460308 -5.32165
LeftToes  1.28511e-009 -3.60458e-011 6.16399e-011
501
root  39.9506 38.6007 3.26995 -116.595 -89.5412 109.502
RightUpLeg  2.92512 -8.92624 1.0894
RightLeg  18.5785 5.20571 2.43846
RightFoot  -15.0557 -0.239824 -4.25577
RightToes  -3.31784e-009 0 -3.6325e-017
Spine  7.5329 2.16902 13.9873
Spine1  5.58845 5.3512 -8.10945
HEad  -4.78835 -19.2654 -1.44094
LeftShoulder1  -0.540904 4.85675 -33.8215
LeftArm  -3.64084 27.9681 -33.705
LeftForeArm  32.8764 -10.8446 -7.07066
LeftHand  -0.223871 11.0948 -3.16485
RightShoulder  -1.10887 -6.64685 28.7579
RightArm  19.756 24.8606 47.4957
RightForeArm  7.299 26.4983 5.31069
RightHand  -0.279217 6.4509 -3.06672
LeftUpLeg  -19.6084 -3.17006 2.58334
LeftLeg  34.5529 -4.85034 -3.23464
LeftFoot  -1.05772 0.504434 -5.53514
LeftToes  1.28511e-009 -3.60458e-011 6.16399e-011
502
root  38.9616 38.6539 3.16804 -126.67 -89.3266 119.799
RightUpLeg  5.2661 -8.96544 0.694584
RightLeg  16.8213 5.59229 2.53454
RightFoot  -15.725 -0.260761 -4.03671
RightToes  -3.31784e-009 0 -3.6325e-017
Spine  7.26161 2.34303 13.3585
Spine1  5.63664 5.34822 -8.50315
HEad  -5.31154 -19.139 -1.36104
LeftShoulder1  -0.561176 4.90616 -33.8563
LeftArm  -2.61935 27.9525 -34.4185
LeftForeArm  31.3839 -12.3742 -6.82372
LeftHand  -0.176439 10.2924 -2.71059
RightShoulder  -1.08494 -6.58393 28.6949
RightArm  19.2268 24.874 47.4497
RightForeArm  7.87443 27.9056 5.60521
RightHand  -0.278724 6.1486 -3.14761
LeftUpLeg  -19.061 -2.54081 1.90533
LeftLeg  24.0221 -5.71064 -2.44677
LeftFoot  -1.30584 0.508891 -5.70722
LeftToes  1.28511e-009 -3.60458e-011 6.16399e-011
503
root  37.963 38.7106 3.07008 -115.53 -89.0793 109.089
RightUpLeg  7.5881 -8.82141 0.305278
RightLeg  14.5976 5.72033 2.39432
RightFoot  -16.2944 -0.268117 -3.6516
RightToes  -3.31784e-009 0 -3.6325e-017
Spine  6.76032 2.45652 12.3856
Spine1  5.82176 5.31503 -8.95222
HEad  -5.58223 -18.8737 -1.07964
LeftShoulder1  -0.554266 4.9001 -33.541
LeftArm  -2.14833 27.4875 -35.6613
LeftForeArm  29.6787 -13.3916 -6.56082
LeftHand  -0.149346 10.0654 -2.23815
RightShoulder  -1.12071 -6.65507 29.0449
RightArm  19.9886 24.4832 47.2766
RightForeArm  7.44099 28.8462 5.85098
RightHand  -0.400497 5.42192 -4.59871
LeftUpLeg  -18.2519 -0.687928 0.681119
LeftLeg  13.4408 -5.68881 -1.30759
LeftFoot  -1.63557 0.527038 -6.08945
LeftToes  1.28511e-009 -3.60458e-011 6.16399e-011
504
root  36.9297 38.7042 2.97749 -129.803 -88.5919 123.626
RightUpLeg  9.84866 -8.70215 -0.128653
RightLeg  12.9845 6.35594 2.23445
RightFoot  -17.0632 -0.282844 -3.35128
RightToes  -3.31784e-009 0 -3.6325e-017
Spine  6.40978 2.69673 10.943
Spine1  6.10141 5.34217 -8.63435
HEad  -5.42466 -18.4406 -1.17059
LeftShoulder1  -0.595172 4.99315 -33.7953
LeftArm  0.247009 26.7318 -36.1746
LeftForeArm  26.7502 -15.1676 -6.27805
LeftHand  -0.148342 10.5648 -1.94439
RightShoulder  -1.11683 -6.66059 28.8583
RightArm  20.8884 23.4644 47.7472
RightForeArm  7.93823 28.7923 5.81108
RightHand  -0.328785 5.63633 -3.78925
LeftUpLeg  -17.0361 1.89288 -0.645089
LeftLeg  4.1327 -2.9883 -0.556121
LeftFoot  -0.923795 0.662746 -7.17909
LeftToes  1.28511e-009 -3.60458e-011 6.16399e-011
